<?xml version="1.0" encoding="utf-8"?>
<!-- Luv yall :)-->
<svg version="1.1" xmlns="http://www.w3.org/2000/svg" xmlns:xlink="http://www.w3.org/1999/xlink" x="0px" y="0px"
	 viewBox="0 0 512 512" style="enable-background:new 0 0 512 512;" xml:space="preserve">
<style type="text/css">
	.st0{display:none;}
	.st1{display:none;stroke:#000000;stroke-width:1.4719;stroke-miterlimit:10;}
	.st2{fill:#FFFFFF;}
	.st3{fill:none;}
	.st4{display:inline;stroke:#000000;stroke-width:1.4719;stroke-miterlimit:10;}
</style>
<g id="Layer_1" class="st0">
</g>
<g id="Layer_2">
	<g id="Layer_4" class="st0">
	</g>
	<g id="Layer_5" class="st0">
	</g>
	<path class="st1" d="M264.6,285.1"/>
	<path class="st2" d="M167.7,217.7l-37.1,115.6l38.5,1.4l-37,63.7H62.5c-6.7,0-11.5-6.5-9.5-13L137,114.3c1.3-4.2,5.2-7,9.6-7h43.8
		c4.4,0,8.2,2.8,9.5,6.9l91,284.2h-61.4L167.7,217.7z"/>
	<g id="Layer_6">
		<path class="st3" d="M332.3,37.6c-9.7,29.9-25.3,57.9-45.5,82"/>
		<path class="st2" d="M443.6,109.9H313.1c-5.9,0-10.5,5-10,10.8l0,277.7h53.4V281.8l42.1-1l15.4-56.4l-57.5-0.5v-57l72.9-0.5
			L443.6,109.9z M327.3,297l0-0.2h0L327.3,297z"/>
	</g>
</g>
<g id="Layer_7" class="st0">
	<rect x="33.5" y="60.4" class="st4" width="419.3" height="381.4"/>
</g>
</svg>
